<svg width="43" height="24" viewBox="0 0 43 24" fill="none" xmlns="http://www.w3.org/2000/svg">
<g clip-path="url(#clip0_3503_55323)">
<path fill-rule="evenodd" clip-rule="evenodd" d="M39.1391 7.63582L42.9993 3.81941L39.1391 0H31.4219L35.282 3.81941L31.4219 7.63582H39.1391Z" fill="#007948"/>
<path fill-rule="evenodd" clip-rule="evenodd" d="M27.5657 24.003C26.103 24.003 24.7003 23.4281 23.6661 22.4048C22.6318 21.3814 22.0508 19.9935 22.0508 18.5463V17.4567H25.7264V18.5463C25.7264 19.0289 25.9202 19.4918 26.2651 19.8331C26.61 20.1744 27.0779 20.3662 27.5657 20.3662H33.0776L29.402 24.003H27.5657Z" fill="#007948"/>
<path fill-rule="evenodd" clip-rule="evenodd" d="M16.5392 24.003C15.8151 24.003 15.0982 23.8618 14.4292 23.5876C13.7603 23.3133 13.1525 22.9113 12.6407 22.4046C12.1288 21.8978 11.7229 21.2963 11.446 20.6342C11.1692 19.9722 11.0269 19.2627 11.0273 18.5463V17.4567H14.7029V18.5463C14.7025 18.7851 14.7498 19.0217 14.8419 19.2425C14.934 19.4633 15.0692 19.6639 15.2397 19.833C15.4103 20.002 15.6128 20.1361 15.8358 20.2276C16.0588 20.3191 16.2978 20.3662 16.5392 20.3662H22.0511L18.3785 24.003H16.5392Z" fill="#007948"/>
<path fill-rule="evenodd" clip-rule="evenodd" d="M16.5392 8.72836C15.0774 8.72836 13.6754 9.30295 12.6417 10.3257C11.6081 11.3485 11.0273 12.7357 11.0273 14.1821V16.3642H14.7029V14.1821C14.7029 13.7002 14.8964 13.2381 15.2408 12.8973C15.5852 12.5566 16.0522 12.3652 16.5392 12.3652H22.0511V8.72836H16.5392Z" fill="#007948"/>
<path fill-rule="evenodd" clip-rule="evenodd" d="M27.5657 8.72836C26.1036 8.72836 24.7013 9.30285 23.6671 10.3255C22.633 11.3482 22.0516 12.7354 22.0508 14.1821V16.3642H25.7264V14.1821C25.7272 13.6999 25.9213 13.2378 26.2662 12.8972C26.611 12.5565 27.0784 12.3652 27.5657 12.3652H33.0776V8.72836H27.5657Z" fill="#007948"/>
<path fill-rule="evenodd" clip-rule="evenodd" d="M4.77734 13.4547H11.0274L8.0869 16.3642H4.77734V13.4547Z" fill="#005695"/>
<path fill-rule="evenodd" clip-rule="evenodd" d="M3.6756 24V17.4537H0V24H3.6756Z" fill="#005695"/>
<path fill-rule="evenodd" clip-rule="evenodd" d="M29.7711 7.63582L33.6282 3.81941L29.7711 0H22.0508L25.9109 3.81941L22.0508 7.63582H29.7711Z" fill="#005695"/>
<path fill-rule="evenodd" clip-rule="evenodd" d="M5.51151 8.72836C4.05176 8.73153 2.6529 9.30752 1.62183 10.33C0.590767 11.3524 0.0117152 12.7377 0.0117188 14.1821V16.3642H3.68732V14.1821C3.68732 13.7002 3.88078 13.2381 4.22516 12.8973C4.56953 12.5566 5.0366 12.3652 5.52361 12.3652H11.0385V8.72836H5.51151Z" fill="#005695"/>
</g>
<defs>
<clipPath id="clip0_3503_55323">
<rect width="43" height="24" fill="white"/>
</clipPath>
</defs>
</svg>
