<svg width="21" height="20" viewBox="0 0 21 20" fill="none" xmlns="http://www.w3.org/2000/svg">
<path fill-rule="evenodd" clip-rule="evenodd" d="M11.5774 4.41083C11.9028 4.08539 12.4305 4.08539 12.7559 4.41083L17.7559 9.41083C17.9122 9.56711 18 9.77907 18 10.0001C18 10.2211 17.9122 10.4331 17.7559 10.5893L12.7559 15.5893C12.4305 15.9148 11.9028 15.9148 11.5774 15.5893C11.252 15.2639 11.252 14.7363 11.5774 14.4108L15.1548 10.8334L3.83333 10.8334C3.3731 10.8334 3 10.4603 3 10.0001C3 9.53984 3.3731 9.16675 3.83333 9.16675L15.1548 9.16675L11.5774 5.58934C11.252 5.2639 11.252 4.73626 11.5774 4.41083Z" fill="#C4C4CE"/>
</svg>
