<svg width="21" height="20" viewBox="0 0 21 20" fill="none" xmlns="http://www.w3.org/2000/svg">
<path fill-rule="evenodd" clip-rule="evenodd" d="M11.5774 4.41058C11.9028 4.08514 12.4305 4.08514 12.7559 4.41058L17.7559 9.41058C17.9122 9.56686 18 9.77882 18 9.99984C18 10.2209 17.9122 10.4328 17.7559 10.5891L12.7559 15.5891C12.4305 15.9145 11.9028 15.9145 11.5774 15.5891C11.252 15.2637 11.252 14.736 11.5774 14.4106L15.1548 10.8332L3.83333 10.8332C3.3731 10.8332 3 10.4601 3 9.99984C3 9.5396 3.3731 9.1665 3.83333 9.1665L15.1548 9.1665L11.5774 5.58909C11.252 5.26366 11.252 4.73602 11.5774 4.41058Z" fill="white"/>
</svg>
