<svg width="24" height="24" viewBox="0 0 24 24" fill="none" xmlns="http://www.w3.org/2000/svg">
<path fill-rule="evenodd" clip-rule="evenodd" d="M9 3C9 2.44772 8.55228 2 8 2C7.44772 2 7 2.44772 7 3V4H6C3.79086 4 2 5.79086 2 8V20C2 21.1088 2.90292 22 4.00325 22L8.5 22C9.05229 22 9.5 21.5523 9.5 21C9.5 20.4477 9.05229 20 8.5 20H4.00325L4.00204 20L4.00004 19.9984L4 12H21C21.5523 12 22 11.5523 22 11V8C22 5.79086 20.2091 4 18 4H17V3C17 2.44772 16.5523 2 16 2C15.4477 2 15 2.44772 15 3V4L9 4V3ZM4.00204 20C4.00172 19.9999 4.0019 19.9999 4.00204 20V20ZM15 7V6L9 6V7C9 7.55228 8.55229 8 8 8C7.44772 8 7 7.55228 7 7V6H6C4.89543 6 4 6.89543 4 8V10L20 10V8C20 6.89543 19.1046 6 18 6H17V7C17 7.55228 16.5523 8 16 8C15.4477 8 15 7.55228 15 7Z" fill="#5A5D6C"/>
<path d="M21.7071 17.2929L18.7071 14.2929C18.3166 13.9024 17.6834 13.9024 17.2929 14.2929C16.9024 14.6834 16.9024 15.3166 17.2929 15.7071L18.5858 17H12C11.4477 17 11 17.4477 11 18C11 18.5523 11.4477 19 12 19H18.5858L17.2929 20.2929C16.9024 20.6834 16.9024 21.3166 17.2929 21.7071C17.6834 22.0976 18.3166 22.0976 18.7071 21.7071L21.7071 18.7071C22.0976 18.3166 22.0976 17.6834 21.7071 17.2929Z" fill="#5A5D6C"/>
</svg>
