<svg width="14" height="14" viewBox="0 0 14 14" fill="none" xmlns="http://www.w3.org/2000/svg">
<path fill-rule="evenodd" clip-rule="evenodd" d="M6.32674 1.98964C6.32363 1.99389 6.32 1.99922 6.31592 2.00579C6.2768 2.06882 6.23761 2.18028 6.21933 2.31868C6.13714 2.94078 5.77613 3.52197 5.18865 3.86115C4.60133 4.20024 3.9177 4.22237 3.33795 3.98271C3.20911 3.92944 3.09312 3.90767 3.01895 3.91002C3.01098 3.91027 3.00438 3.91078 2.99904 3.91136C2.72464 4.26629 2.4966 4.65842 2.32374 5.07869C2.32586 5.08347 2.32863 5.08922 2.33225 5.09596C2.36725 5.16119 2.44411 5.25065 2.55475 5.33553C3.053 5.71771 3.37627 6.32132 3.37627 7.00015C3.37627 7.67899 3.053 8.2826 2.55475 8.66478C2.44411 8.74966 2.36725 8.83912 2.33225 8.90435C2.32863 8.91109 2.32586 8.91684 2.32374 8.92162C2.4966 9.34189 2.72464 9.73402 2.99904 10.0889C3.00438 10.0895 3.01097 10.09 3.01894 10.0903C3.09311 10.0926 3.2091 10.0709 3.33795 10.0176C3.91769 9.77793 4.60132 9.80006 5.18865 10.1392C5.77613 10.4783 6.13714 11.0595 6.21933 11.6816C6.23761 11.82 6.2768 11.9315 6.31592 11.9945C6.32 12.0011 6.32363 12.0064 6.32674 12.0107C6.547 12.04 6.77203 12.0552 7.00094 12.0552C7.22985 12.0552 7.45489 12.04 7.67514 12.0107C7.67825 12.0064 7.68188 12.0011 7.68596 11.9945C7.72508 11.9315 7.76426 11.82 7.78255 11.6816C7.86474 11.0595 8.22575 10.4783 8.81323 10.1391C9.40056 9.80006 10.0842 9.77793 10.6639 10.0176C10.7928 10.0709 10.9088 10.0926 10.9829 10.0903C10.9909 10.09 10.9975 10.0895 11.0028 10.0889C11.2772 9.73404 11.5053 9.34192 11.6781 8.92166C11.676 8.91689 11.6732 8.91114 11.6696 8.9044C11.6346 8.83916 11.5577 8.74969 11.4471 8.66482C10.9488 8.28263 10.6255 7.67901 10.6255 7.00015C10.6255 6.3213 10.9488 5.71767 11.4471 5.33549C11.5577 5.25062 11.6346 5.16115 11.6696 5.09591C11.6732 5.08917 11.676 5.08342 11.6781 5.07864C11.5053 4.65839 11.2772 4.26627 11.0028 3.91136C10.9975 3.91078 10.9909 3.91027 10.9829 3.91002C10.9088 3.90767 10.7928 3.92944 10.6639 3.98271C10.0842 4.22237 9.40056 4.20024 8.81323 3.86115C8.22575 3.52197 7.86474 2.94078 7.78255 2.31868C7.76427 2.18028 7.72508 2.06882 7.68596 2.00579C7.68188 1.99922 7.67825 1.99389 7.67514 1.98964C7.45488 1.96032 7.22985 1.94515 7.00094 1.94515C6.77203 1.94515 6.547 1.96032 6.32674 1.98964ZM6.10715 0.67393C6.39954 0.632956 6.69796 0.611816 7.00094 0.611816C7.30392 0.611816 7.60234 0.632956 7.89473 0.673929C8.34659 0.737251 8.64513 1.02282 8.81882 1.30266C8.98764 1.57465 9.07003 1.8839 9.1044 2.14404C9.13466 2.37309 9.2664 2.58319 9.4799 2.70645C9.69335 2.82969 9.94109 2.83876 10.1545 2.75051C10.3968 2.65035 10.7055 2.56723 11.0252 2.57736C11.354 2.58778 11.75 2.70312 12.031 3.06156C12.3982 3.52997 12.7017 4.05127 12.9279 4.61241C13.0984 5.0353 13.0001 5.43627 12.8445 5.72632C12.6932 6.00822 12.4666 6.23387 12.2586 6.39345C12.0751 6.53417 11.9589 6.75345 11.9589 7.00015C11.9589 7.24686 12.0751 7.46614 12.2586 7.60686C12.4666 7.76644 12.6932 7.99209 12.8445 8.27399C13.0001 8.56403 13.0984 8.96501 12.9279 9.3879C12.7017 9.94903 12.3982 10.4703 12.031 10.9387C11.75 11.2972 11.354 11.4125 11.0252 11.423C10.7055 11.4331 10.3968 11.35 10.1545 11.2498C9.94108 11.1615 9.69334 11.1706 9.4799 11.2939C9.2664 11.4171 9.13466 11.6272 9.1044 11.8563C9.07003 12.1164 8.98764 12.4257 8.81882 12.6977C8.64514 12.9775 8.34659 13.2631 7.89473 13.3264C7.60234 13.3674 7.30392 13.3885 7.00094 13.3885C6.69796 13.3885 6.39954 13.3674 6.10715 13.3264C5.65529 13.2631 5.35674 12.9775 5.18305 12.6976C5.01424 12.4257 4.93185 12.1164 4.89748 11.8563C4.86722 11.6272 4.73548 11.4171 4.52198 11.2938C4.30854 11.1706 4.0608 11.1615 3.84734 11.2498C3.60503 11.35 3.29636 11.4331 2.97671 11.4229C2.6479 11.4125 2.25189 11.2972 1.97087 10.9387C1.60364 10.4703 1.30021 9.949 1.07395 9.38784C0.903455 8.96497 1.00173 8.56401 1.15735 8.27397C1.3086 7.99207 1.53521 7.76642 1.74325 7.60684C1.9267 7.46613 2.04294 7.24685 2.04294 7.00015C2.04294 6.75346 1.9267 6.53418 1.74325 6.39346C1.53521 6.23389 1.3086 6.00824 1.15735 5.72634C1.00173 5.4363 0.903455 5.03534 1.07395 4.61247C1.30021 4.05131 1.60364 3.52998 1.97088 3.06157C2.25189 2.70312 2.6479 2.58778 2.97671 2.57736C3.29636 2.56723 3.60504 2.65035 3.84734 2.75051C4.0608 2.83876 4.30854 2.82968 4.52198 2.70645C4.73548 2.58319 4.86722 2.37309 4.89748 2.14404C4.93185 1.8839 5.01424 1.57465 5.18306 1.30266C5.35674 1.02282 5.65529 0.737253 6.10715 0.67393ZM7.00094 6.2364C6.57913 6.2364 6.23719 6.57835 6.23719 7.00015C6.23719 7.42196 6.57914 7.76391 7.00094 7.76391C7.42275 7.76391 7.76469 7.42196 7.76469 7.00015C7.76469 6.57835 7.42275 6.2364 7.00094 6.2364ZM4.90386 7.00015C4.90386 5.84197 5.84276 4.90307 7.00094 4.90307C8.15913 4.90307 9.09803 5.84197 9.09803 7.00015C9.09803 8.15834 8.15913 9.09724 7.00094 9.09724C5.84276 9.09724 4.90386 8.15834 4.90386 7.00015Z" fill="#0A68FF"/>
</svg>
