<svg width="20" height="20" viewBox="0 0 20 20" fill="none" xmlns="http://www.w3.org/2000/svg">
<path fill-rule="evenodd" clip-rule="evenodd" d="M1.70711 0.292893C1.31658 -0.0976311 0.683417 -0.0976311 0.292893 0.292893C-0.0976311 0.683417 -0.0976311 1.31658 0.292893 1.70711L3.8779 5.29211C3.64415 5.49806 3.41875 5.71789 3.20282 5.9516L0.396366 8.98919C-0.132121 9.5612 -0.132122 10.4388 0.396365 11.0108L3.20283 14.0484C6.1446 17.2324 10.8448 17.8404 14.458 15.8722L18.2929 19.7071C18.6834 20.0976 19.3166 20.0976 19.7071 19.7071C20.0976 19.3166 20.0976 18.6834 19.7071 18.2929L1.70711 0.292893ZM12.9647 14.3789L11.6648 13.079C11.1697 13.3473 10.6022 13.4999 9.99981 13.4999C8.06681 13.4999 6.49981 11.9329 6.49981 9.99994C6.49981 9.39756 6.6525 8.83009 6.92072 8.33493L5.2959 6.71012C5.07852 6.89474 4.87001 7.09431 4.67182 7.30882L2.18541 10L4.67182 12.6912C6.83148 15.0287 10.2156 15.5913 12.9647 14.3789ZM9.99981 11.4999C10.0278 11.4999 10.0557 11.4992 10.0833 11.4977L8.50208 9.91643C8.50057 9.94407 8.49981 9.97191 8.49981 9.99994C8.49981 10.8284 9.17138 11.4999 9.99981 11.4999Z" fill="#5A5D6C"/>
<path d="M17.8146 10L16.0952 11.861L17.5105 13.2763L19.6036 11.0108C20.1321 10.4388 20.1321 9.5612 19.6036 8.98919L16.7972 5.9516C14.3785 3.33373 10.7712 2.45726 7.55655 3.32221L9.27023 5.03592C11.4576 4.81999 13.7287 5.57762 15.3282 7.30882L17.8146 10Z" fill="#5A5D6C"/>
</svg>
