<svg width="24" height="24" viewBox="0 0 24 24" fill="none" xmlns="http://www.w3.org/2000/svg">
<g clip-path="url(#clip0_5605_8085)">
<path fill-rule="evenodd" clip-rule="evenodd" d="M12 8.5C10.067 8.5 8.5 10.067 8.5 12C8.5 13.933 10.067 15.5 12 15.5C13.933 15.5 15.5 13.933 15.5 12C15.5 10.067 13.933 8.5 12 8.5ZM10.5 12C10.5 11.1716 11.1716 10.5 12 10.5C12.8284 10.5 13.5 11.1716 13.5 12C13.5 12.8284 12.8284 13.5 12 13.5C11.1716 13.5 10.5 12.8284 10.5 12Z" fill="#5A5D6C"/>
<path fill-rule="evenodd" clip-rule="evenodd" d="M18.7972 7.9516C15.1612 4.01613 8.83884 4.01613 5.20282 7.9516L2.39637 10.9892C1.86788 11.5612 1.86788 12.4388 2.39637 13.0108L5.20283 16.0484C8.83884 19.9839 15.1612 19.9839 18.7972 16.0484L21.6036 13.0108C22.1321 12.4388 22.1321 11.5612 21.6036 10.9892L18.7972 7.9516ZM6.67182 9.30882C9.51601 6.23039 14.484 6.23039 17.3282 9.30882L19.8146 12L17.3282 14.6912C14.484 17.7696 9.51601 17.7696 6.67182 14.6912L4.18541 12L6.67182 9.30882Z" fill="#5A5D6C"/>
</g>
<defs>
<clipPath id="clip0_5605_8085">
<rect width="20" height="20" fill="white" transform="translate(2 2)"/>
</clipPath>
</defs>
</svg>
