<svg width="20" height="20" viewBox="0 0 20 20" fill="none" xmlns="http://www.w3.org/2000/svg">
<g clip-path="url(#clip0_3543_55809)">
<path fill-rule="evenodd" clip-rule="evenodd" d="M10.0026 5.83317C8.62189 5.83317 7.5026 6.95246 7.5026 8.33317C7.5026 9.71388 8.62189 10.8332 10.0026 10.8332C11.3833 10.8332 12.5026 9.71388 12.5026 8.33317C12.5026 6.95246 11.3833 5.83317 10.0026 5.83317ZM9.16927 8.33317C9.16927 7.87293 9.54237 7.49984 10.0026 7.49984C10.4628 7.49984 10.8359 7.87293 10.8359 8.33317C10.8359 8.79341 10.4628 9.1665 10.0026 9.1665C9.54237 9.1665 9.16927 8.79341 9.16927 8.33317Z" fill="#C4C4CE"/>
<path fill-rule="evenodd" clip-rule="evenodd" d="M14.3578 3.31695C11.8557 1.11636 8.14944 1.11636 5.64736 3.31695C2.84417 5.78236 2.55064 10.1007 4.98608 12.937L9.37036 18.0427C9.52868 18.2271 9.75958 18.3332 10.0026 18.3332C10.2456 18.3332 10.4765 18.2271 10.6348 18.0427L15.0191 12.937C17.4545 10.1007 17.161 5.78236 14.3578 3.31695ZM6.74805 4.56844C8.62073 2.92141 11.3844 2.92141 13.2571 4.56844C15.3714 6.42795 15.5985 9.7039 13.7546 11.8512L10.0026 16.2207L6.25054 11.8512C4.40668 9.70389 4.63378 6.42795 6.74805 4.56844Z" fill="#C4C4CE"/>
</g>
<defs>
<clipPath id="clip0_3543_55809">
<rect width="16.6667" height="16.6667" fill="white" transform="translate(1.66797 1.6665)"/>
</clipPath>
</defs>
</svg>
