<svg width="14" height="14" viewBox="0 0 14 14" fill="none" xmlns="http://www.w3.org/2000/svg">
<path d="M2.9987 7.00016C2.9987 7.36835 3.29718 7.66683 3.66536 7.66683H11.3892L8.52729 10.5288C8.26694 10.7891 8.26694 11.2112 8.52729 11.4716C8.78764 11.7319 9.20975 11.7319 9.4701 11.4716L13.4693 7.47238C13.472 7.46969 13.4747 7.46697 13.4773 7.46422C13.5372 7.40255 13.5827 7.33216 13.614 7.25723C13.6471 7.17812 13.6654 7.09128 13.6654 7.00016C13.6654 6.81828 13.5925 6.65341 13.4744 6.53313C13.4728 6.53151 13.4712 6.5299 13.4696 6.52829L9.4701 2.52876C9.20975 2.26841 8.78764 2.26841 8.52729 2.52876C8.26694 2.78911 8.26694 3.21122 8.52729 3.47157L11.3892 6.3335H3.66536C3.29717 6.3335 2.9987 6.63197 2.9987 7.00016Z" fill="#0A68FF"/>
<path d="M3.66536 13.0002C3.66536 12.632 3.36689 12.3335 2.9987 12.3335H1.66536L1.66536 1.66683L2.9987 1.66683C3.36689 1.66683 3.66536 1.36835 3.66536 1.00016C3.66536 0.631973 3.36689 0.333496 2.9987 0.333496L0.998698 0.333496C0.630509 0.333496 0.332032 0.631973 0.332032 1.00016L0.332031 13.0002C0.332031 13.3684 0.630508 13.6668 0.998698 13.6668H2.9987C3.36689 13.6668 3.66536 13.3684 3.66536 13.0002Z" fill="#0A68FF"/>
</svg>
