<svg width="20" height="20" viewBox="0 0 20 20" fill="none" xmlns="http://www.w3.org/2000/svg">
<path d="M10.8346 4.99984C10.8346 4.5396 10.4615 4.1665 10.0013 4.1665C9.54107 4.1665 9.16797 4.5396 9.16797 4.99984V9.1665H5.0013C4.54106 9.1665 4.16797 9.5396 4.16797 9.99984C4.16797 10.4601 4.54106 10.8332 5.0013 10.8332H9.16797V14.9998C9.16797 15.4601 9.54107 15.8332 10.0013 15.8332C10.4615 15.8332 10.8346 15.4601 10.8346 14.9998V10.8332H15.0013C15.4615 10.8332 15.8346 10.4601 15.8346 9.99984C15.8346 9.5396 15.4615 9.1665 15.0013 9.1665H10.8346V4.99984Z" fill="white"/>
</svg>
