<svg width="18" height="18" viewBox="0 0 18 18" fill="none" xmlns="http://www.w3.org/2000/svg">
<g clip-path="url(#clip0_5617_1432)">
<path fill-rule="evenodd" clip-rule="evenodd" d="M8.41205 0.910581C8.73748 0.585145 9.26512 0.585145 9.59056 0.910582L14.5906 5.91058C14.916 6.23602 14.916 6.76366 14.5906 7.08909C14.2651 7.41453 13.7375 7.41453 13.412 7.08909L9.83464 3.51168L9.83463 13.1665C9.83463 13.6267 9.46154 13.9998 9.0013 13.9998C8.54106 13.9998 8.16797 13.6267 8.16797 13.1665L8.16797 3.51168L4.59056 7.08909C4.26512 7.41453 3.73748 7.41453 3.41205 7.08909C3.08661 6.76365 3.08661 6.23602 3.41205 5.91058L8.41205 0.910581ZM1.5013 13.1665C1.96154 13.1665 2.33464 13.5396 2.33464 13.9998V15.6665H15.668V13.9998C15.668 13.5396 16.0411 13.1665 16.5013 13.1665C16.9615 13.1665 17.3346 13.5396 17.3346 13.9998V16.4998C17.3346 16.9601 16.9615 17.3332 16.5013 17.3332H1.5013C1.04106 17.3332 0.667969 16.9601 0.667969 16.4998V13.9998C0.667969 13.5396 1.04106 13.1665 1.5013 13.1665Z" fill="white"/>
</g>
<defs>
<clipPath id="clip0_5617_1432">
<rect width="16.6667" height="16.6667" fill="white" transform="translate(0.667969 0.666504)"/>
</clipPath>
</defs>
</svg>
