<svg width="16" height="17" viewBox="0 0 16 17" fill="none" xmlns="http://www.w3.org/2000/svg">
<path fill-rule="evenodd" clip-rule="evenodd" d="M8 2C6.34315 2 5 3.34315 5 5C5 6.65685 6.34315 8 8 8C9.65685 8 11 6.65685 11 5C11 3.34315 9.65685 2 8 2ZM11.3344 8.72588C12.3567 7.81038 13 6.48032 13 5C13 2.23858 10.7614 0 8 0C5.23858 0 3 2.23858 3 5C3 6.48031 3.6433 7.81038 4.66559 8.72588C1.91213 9.99012 0 12.7718 0 16C0 16.5523 0.447715 17 1 17C1.55228 17 2 16.5523 2 16C2 12.6863 4.68629 10 8 10C11.3137 10 14 12.6863 14 16C14 16.5523 14.4477 17 15 17C15.5523 17 16 16.5523 16 16C16 12.7718 14.0879 9.99012 11.3344 8.72588Z" fill="#5A5D6C"/>
</svg>
