<svg width="22" height="22" viewBox="0 0 22 22" fill="none" xmlns="http://www.w3.org/2000/svg">
<path d="M17.5911 14V11C17.0756 11 12.9512 11.16 12.4872 15.2C14.0957 15.75 14.9412 17.47 14.3741 19.03C13.807 20.59 12.0335 21.41 10.425 20.86C8.82682 20.3 7.97101 18.59 8.53811 17.03C8.82682 16.17 9.54859 15.5 10.425 15.2C10.724 11.61 13.8792 8.88 17.5911 9V6L21.7155 10L17.5911 14ZM12.4357 18C12.4357 17.7348 12.327 17.4804 12.1337 17.2929C11.9403 17.1054 11.678 17 11.4046 17C11.1311 17 10.8688 17.1054 10.6755 17.2929C10.4821 17.4804 10.3735 17.7348 10.3735 18C10.3735 18.2652 10.4821 18.5196 10.6755 18.7071C10.8688 18.8946 11.1311 19 11.4046 19C11.678 19 11.9403 18.8946 12.1337 18.7071C12.327 18.5196 12.4357 18.2652 12.4357 18ZM10.3735 10.12C10.9715 9.46 11.6623 8.89 12.4357 8.43V4H15.5289L11.4046 0L7.28018 4H10.3735V10.12ZM5.4242 5H3.36201L0.0625 14H2.02158L2.74335 12H6.04286L6.76463 14H8.72371L5.4242 5ZM3.20734 10.65L4.39311 7L5.57887 10.65H3.20734Z" fill="#5A5D6C"/>
</svg>
