<svg width="23" height="22" viewBox="0 0 23 22" fill="none" xmlns="http://www.w3.org/2000/svg">
<path d="M17.5599 15H16.9619L16.1267 14.19C17.0443 13 17.5599 11.5 17.5599 10C17.5599 6.13 14.3326 3 10.3422 3C8.79557 3 7.24893 3.5 6.0013 4.4C2.81521 6.72 2.16562 11.11 4.55776 14.2C6.94991 17.29 11.4764 17.92 14.6625 15.6L15.4977 16.41V17L20.6532 22L22.7154 20L17.5599 15ZM10.3422 15C7.49639 15 5.18673 12.76 5.18673 10C5.18673 7.24 7.49639 5 10.3422 5C13.188 5 15.4977 7.24 15.4977 10C15.4977 12.76 13.188 15 10.3422 15ZM2.09344 5L0.03125 7V0H7.24893L5.18673 2H2.09344V5ZM20.6532 0V7L18.591 5V2H15.4977L13.4355 0H20.6532ZM5.18673 18L7.24893 20H0.03125V13L2.09344 15V18H5.18673Z" fill="#5A5D6C"/>
</svg>
