<svg width="20" height="21" viewBox="0 0 20 21" fill="none" xmlns="http://www.w3.org/2000/svg">
<path d="M19.7158 16H16.6225V13H14.5604V16H11.4671V18H14.5604V21H16.6225V18H19.7158M2.18719 0C1.04268 0 0.125 0.9 0.125 2V18C0.125 19.11 1.04268 20 2.18719 20H10.2401C9.86886 19.38 9.61109 18.7 9.48736 18H2.18719V2H9.40487V7H14.5604V11.08C14.9006 11.03 15.2512 11 15.5914 11C15.942 11 16.2823 11.03 16.6225 11.08V6L10.436 0M4.24939 10V12H12.4982V10M4.24939 14V16H9.40487V14H4.24939Z" fill="#5A5D6C"/>
</svg>
