<svg width="20" height="20" viewBox="0 0 20 20" fill="none" xmlns="http://www.w3.org/2000/svg">
<path d="M19.7158 17L16.6225 14V16H12.4982V18H16.6225V20L19.7158 17ZM10.2297 20H2.18719C1.05299 20 0.125 19.1 0.125 18V2C0.125 0.9 1.05299 0 2.18719 0H10.436L16.6225 6V11.1C16.3132 11 15.9008 11 15.5914 11C15.2821 11 14.8697 11 14.5604 11.1V7H9.40487V2H2.18719V18H9.50798C9.61109 18.7 9.92042 19.4 10.2297 20ZM4.24939 10H12.4982V11.8C12.395 11.9 12.2919 11.9 12.1888 12H4.24939V10ZM4.24939 14H9.40487V16H4.24939V14Z" fill="#5A5D6C"/>
</svg>
