<svg width="147" height="126" viewBox="0 0 147 126" fill="none" xmlns="http://www.w3.org/2000/svg">
<path fill-rule="evenodd" clip-rule="evenodd" d="M63.4414 0.870453H95.9078L64.4921 32.2861L63.8517 31.6457H63.4414V0.870453ZM64.6724 30.3649L92.9359 2.10146H64.6724V30.3649Z" fill="#619948"/>
<path fill-rule="evenodd" clip-rule="evenodd" d="M93.6016 0.870453H126.068L94.6523 32.2861L94.0119 31.6457H93.6016V0.870453ZM94.8326 30.3649L123.096 2.10146H94.8326V30.3649Z" fill="#619948"/>
<path fill-rule="evenodd" clip-rule="evenodd" d="M63.4414 31.2353H95.9078L64.4921 62.651L63.8517 62.0106H63.4414V31.2353ZM64.6724 60.7298L92.9359 32.4663H64.6724V60.7298Z" fill="#619948"/>
<path fill-rule="evenodd" clip-rule="evenodd" d="M93.6016 31.2353H126.068L94.6523 62.651L94.0119 62.0106H93.6016V31.2353ZM94.8326 60.7298L123.096 32.4663H94.8326V60.7298Z" fill="#619948"/>
<path fill-rule="evenodd" clip-rule="evenodd" d="M63.4414 61.6H95.9078L64.4921 93.0156L63.8517 92.3752H63.4414V61.6ZM64.6724 91.0944L92.9359 62.831H64.6724V91.0944Z" fill="#619948"/>
<path fill-rule="evenodd" clip-rule="evenodd" d="M33.0781 61.6H65.5445L34.1289 93.0156L33.4885 92.3752H33.0781V61.6ZM34.3091 91.0944L62.5726 62.831H34.3091V91.0944Z" fill="#619948"/>
<path fill-rule="evenodd" clip-rule="evenodd" d="M34.1016 32.4664L1.63519 32.4664L34.1016 3.8147e-06L34.1016 32.4664ZM32.8706 31.2354L32.8706 2.97193L4.60711 31.2354L32.8706 31.2354Z" fill="#619948"/>
<path fill-rule="evenodd" clip-rule="evenodd" d="M64.4688 32.4664L32.0024 32.4664L63.418 1.05074L64.0584 1.69113L64.4688 1.69113L64.4688 32.4664ZM63.2377 2.97193L34.9743 31.2354L63.2377 31.2354L63.2377 2.97193Z" fill="#619948"/>
<path fill-rule="evenodd" clip-rule="evenodd" d="M34.1016 62.8313L1.63519 62.8313L33.0508 31.4156L33.6912 32.056L34.1016 32.056L34.1016 62.8313ZM32.8706 33.3368L4.60711 61.6003L32.8706 61.6003L32.8706 33.3368Z" fill="#619948"/>
<path fill-rule="evenodd" clip-rule="evenodd" d="M34.1016 93.1959L1.63519 93.1959L33.0508 61.7803L33.6912 62.4207L34.1016 62.4207L34.1016 93.1959ZM32.8706 63.7015L4.60711 91.9649L32.8706 91.9649L32.8706 63.7015Z" fill="#619948"/>
<path fill-rule="evenodd" clip-rule="evenodd" d="M64.4688 93.1959L32.0024 93.1959L63.418 61.7803L64.0584 62.4207L64.4688 62.4207L64.4688 93.1959ZM63.2377 63.7015L34.9743 91.9649L63.2377 91.9649L63.2377 63.7015Z" fill="#619948"/>
<path fill-rule="evenodd" clip-rule="evenodd" d="M32.8711 31.2353H65.3375L33.9218 62.651L33.2814 62.0106H32.8711V31.2353ZM34.1021 60.7298L62.3655 32.4663H34.1021V60.7298Z" fill="#619948"/>
<path d="M19.8 109.155C19.8 110.733 19.5254 112.19 18.9762 113.528C18.437 114.856 17.6732 116.01 16.6847 116.988C15.6962 117.957 14.503 118.715 13.1051 119.265C11.7172 119.804 10.1746 120.073 8.47714 120.073H0V98.2515H8.47714C10.1746 98.2515 11.7172 98.5261 13.1051 99.0752C14.503 99.6244 15.6962 100.383 16.6847 101.352C17.6732 102.32 18.437 103.474 18.9762 104.812C19.5254 106.14 19.8 107.587 19.8 109.155ZM14.6178 109.155C14.6178 108.077 14.478 107.103 14.1985 106.234C13.9189 105.366 13.5145 104.632 12.9853 104.033C12.4661 103.424 11.8271 102.959 11.0682 102.64C10.3094 102.31 9.44567 102.146 8.47714 102.146H5.09228V116.179H8.47714C9.44567 116.179 10.3094 116.02 11.0682 115.7C11.8271 115.371 12.4661 114.906 12.9853 114.307C13.5145 113.698 13.9189 112.959 14.1985 112.091C14.478 111.222 14.6178 110.243 14.6178 109.155Z" fill="#619948"/>
<path d="M25.9928 104.797V120.073H22.7727V104.797H25.9928ZM26.532 100.184C26.532 100.473 26.4721 100.748 26.3523 101.007C26.2425 101.267 26.0877 101.497 25.888 101.696C25.6883 101.886 25.4537 102.041 25.1841 102.161C24.9245 102.27 24.6449 102.325 24.3453 102.325C24.0558 102.325 23.7812 102.27 23.5216 102.161C23.272 102.041 23.0523 101.886 22.8626 101.696C22.6729 101.497 22.5181 101.267 22.3983 101.007C22.2885 100.748 22.2335 100.473 22.2335 100.184C22.2335 99.884 22.2885 99.6044 22.3983 99.3448C22.5181 99.0852 22.6729 98.8606 22.8626 98.6709C23.0523 98.4712 23.272 98.3164 23.5216 98.2066C23.7812 98.0867 24.0558 98.0268 24.3453 98.0268C24.6449 98.0268 24.9245 98.0867 25.1841 98.2066C25.4537 98.3164 25.6883 98.4712 25.888 98.6709C26.0877 98.8606 26.2425 99.0852 26.3523 99.3448C26.4721 99.6044 26.532 99.884 26.532 100.184Z" fill="#619948"/>
<path d="M35.4906 112.3C36.489 112.3 37.2379 112.046 37.7371 111.536C38.2364 111.027 38.486 110.363 38.486 109.544C38.486 108.706 38.2364 108.042 37.7371 107.552C37.2379 107.063 36.489 106.818 35.4906 106.818C34.502 106.818 33.7532 107.063 33.244 107.552C32.7447 108.042 32.4951 108.706 32.4951 109.544C32.4951 109.944 32.56 110.313 32.6898 110.653C32.8196 110.992 33.0093 111.287 33.2589 111.536C33.5086 111.776 33.8181 111.966 34.1875 112.105C34.5669 112.235 35.0013 112.3 35.4906 112.3ZM39.9688 120.822C39.9688 120.483 39.8689 120.213 39.6692 120.013C39.4795 119.804 39.2199 119.644 38.8904 119.534C38.5609 119.414 38.1765 119.33 37.7371 119.28C37.2978 119.22 36.8285 119.18 36.3293 119.16C35.84 119.13 35.3358 119.105 34.8166 119.085C34.3073 119.055 33.8131 119.005 33.3338 118.935C32.8545 119.185 32.4601 119.484 32.1506 119.834C31.8511 120.183 31.7013 120.588 31.7013 121.047C31.7013 121.346 31.7762 121.626 31.926 121.886C32.0857 122.145 32.3253 122.37 32.6449 122.56C32.9744 122.749 33.3887 122.899 33.888 123.009C34.3972 123.119 35.0063 123.174 35.7152 123.174C37.1331 123.174 38.1964 122.954 38.9054 122.515C39.6143 122.075 39.9688 121.511 39.9688 120.822ZM43.2038 105.351V106.549C43.2038 106.948 42.9642 107.193 42.4849 107.283L40.9573 107.537C41.2169 108.117 41.3467 108.761 41.3467 109.469C41.3467 110.218 41.1969 110.897 40.8973 111.506C40.6078 112.115 40.2034 112.635 39.6842 113.064C39.165 113.493 38.5459 113.823 37.827 114.053C37.1081 114.282 36.3293 114.397 35.4906 114.397C35.171 114.397 34.8565 114.382 34.547 114.352C34.2474 114.312 33.9529 114.262 33.6633 114.202C33.3738 114.372 33.1591 114.552 33.0193 114.741C32.8795 114.931 32.8096 115.126 32.8096 115.326C32.8096 115.655 32.9544 115.9 33.244 116.059C33.5335 116.219 33.9129 116.334 34.3822 116.404C34.8615 116.474 35.4057 116.519 36.0148 116.539C36.6238 116.559 37.2429 116.594 37.8719 116.644C38.501 116.694 39.12 116.778 39.7291 116.898C40.3382 117.008 40.8774 117.198 41.3467 117.467C41.8259 117.727 42.2104 118.081 42.4999 118.531C42.7895 118.98 42.9343 119.564 42.9343 120.283C42.9343 120.942 42.7695 121.586 42.44 122.215C42.1105 122.844 41.6312 123.403 41.0022 123.893C40.3831 124.382 39.6243 124.771 38.7256 125.061C37.827 125.36 36.8036 125.51 35.6553 125.51C34.517 125.51 33.5235 125.4 32.6748 125.181C31.8361 124.961 31.1322 124.661 30.563 124.282C30.0039 123.913 29.5845 123.483 29.3049 122.994C29.0353 122.505 28.9005 121.995 28.9005 121.466C28.9005 120.747 29.1252 120.133 29.5745 119.624C30.0338 119.115 30.6529 118.715 31.4317 118.426C31.0123 118.226 30.6729 117.952 30.4132 117.602C30.1636 117.253 30.0388 116.793 30.0388 116.224C30.0388 115.775 30.2036 115.306 30.5331 114.816C30.8626 114.327 31.3568 113.913 32.0158 113.573C31.257 113.154 30.6579 112.6 30.2185 111.911C29.7792 111.212 29.5595 110.398 29.5595 109.469C29.5595 108.711 29.7043 108.027 29.9939 107.418C30.2934 106.809 30.7078 106.289 31.237 105.86C31.7662 105.431 32.3902 105.101 33.1092 104.871C33.8381 104.642 34.6319 104.527 35.4906 104.527C36.8086 104.527 37.9568 104.802 38.9353 105.351H43.2038Z" fill="#619948"/>
<path d="M49.1023 104.797V120.073H45.8822V104.797H49.1023ZM49.6415 100.184C49.6415 100.473 49.5816 100.748 49.4618 101.007C49.3519 101.267 49.1972 101.497 48.9975 101.696C48.7978 101.886 48.5631 102.041 48.2936 102.161C48.0339 102.27 47.7544 102.325 47.4548 102.325C47.1653 102.325 46.8907 102.27 46.6311 102.161C46.3815 102.041 46.1618 101.886 45.9721 101.696C45.7824 101.497 45.6276 101.267 45.5078 101.007C45.3979 100.748 45.343 100.473 45.343 100.184C45.343 99.884 45.3979 99.6044 45.5078 99.3448C45.6276 99.0852 45.7824 98.8606 45.9721 98.6709C46.1618 98.4712 46.3815 98.3164 46.6311 98.2066C46.8907 98.0867 47.1653 98.0268 47.4548 98.0268C47.7544 98.0268 48.0339 98.0867 48.2936 98.2066C48.5631 98.3164 48.7978 98.4712 48.9975 98.6709C49.1972 98.8606 49.3519 99.0852 49.4618 99.3448C49.5816 99.6044 49.6415 99.884 49.6415 100.184Z" fill="#619948"/>
<path d="M68.0058 114.427C68.1256 114.427 68.2454 114.452 68.3652 114.502C68.485 114.542 68.5999 114.617 68.7097 114.727L70.7167 116.838C69.838 117.987 68.7347 118.855 67.4067 119.444C66.0887 120.023 64.526 120.313 62.7188 120.313C61.0613 120.313 59.5736 120.033 58.2556 119.474C56.9475 118.905 55.8342 118.126 54.9156 117.138C54.007 116.139 53.3081 114.961 52.8188 113.603C52.3295 112.235 52.0849 110.753 52.0849 109.155C52.0849 107.527 52.3495 106.035 52.8787 104.677C53.4079 103.309 54.1518 102.131 55.1103 101.142C56.0689 100.154 57.2171 99.3848 58.5551 98.8356C59.8931 98.2864 61.3658 98.0119 62.9734 98.0119C63.7922 98.0119 64.561 98.0867 65.2799 98.2365C66.0088 98.3763 66.6878 98.576 67.3168 98.8356C67.9459 99.0852 68.525 99.3898 69.0542 99.7492C69.5834 100.109 70.0527 100.498 70.462 100.917L68.7546 103.209C68.6448 103.349 68.515 103.479 68.3652 103.598C68.2154 103.708 68.0058 103.763 67.7362 103.763C67.5564 103.763 67.3867 103.723 67.2269 103.643C67.0672 103.563 66.8974 103.469 66.7177 103.359C66.538 103.239 66.3383 103.114 66.1186 102.984C65.9089 102.845 65.6543 102.72 65.3548 102.61C65.0652 102.49 64.7207 102.39 64.3214 102.31C63.9319 102.23 63.4726 102.191 62.9434 102.191C62.1047 102.191 61.3359 102.345 60.6369 102.655C59.948 102.964 59.3489 103.419 58.8397 104.018C58.3404 104.607 57.951 105.336 57.6714 106.204C57.4018 107.063 57.2671 108.047 57.2671 109.155C57.2671 110.273 57.4168 111.267 57.7164 112.135C58.0259 113.004 58.4403 113.738 58.9595 114.337C59.4887 114.926 60.1027 115.376 60.8017 115.685C61.5006 115.995 62.2495 116.149 63.0483 116.149C63.5076 116.149 63.9269 116.129 64.3064 116.089C64.6858 116.04 65.0403 115.965 65.3698 115.865C65.6993 115.755 66.0088 115.615 66.2984 115.445C66.5879 115.266 66.8825 115.041 67.182 114.771C67.3018 114.672 67.4316 114.592 67.5714 114.532C67.7112 114.462 67.856 114.427 68.0058 114.427Z" fill="#619948"/>
<path d="M75.9968 106.609C76.6259 105.99 77.3148 105.496 78.0637 105.126C78.8126 104.747 79.6862 104.557 80.6847 104.557C81.5235 104.557 82.2574 104.697 82.8864 104.976C83.5254 105.256 84.0596 105.65 84.489 106.159C84.9283 106.669 85.2578 107.283 85.4775 108.002C85.6971 108.711 85.807 109.494 85.807 110.353V120.073H82.6018V110.353C82.6018 109.325 82.3622 108.526 81.8829 107.957C81.4136 107.388 80.6947 107.103 79.7262 107.103C79.0073 107.103 78.3383 107.268 77.7192 107.597C77.1102 107.927 76.536 108.376 75.9968 108.945V120.073H72.7767V97.907H75.9968V106.609Z" fill="#619948"/>
<path d="M99.5875 110.713C99.5875 110.173 99.5076 109.674 99.3478 109.215C99.1981 108.746 98.9734 108.341 98.6739 108.002C98.3743 107.652 97.9999 107.383 97.5506 107.193C97.1112 106.993 96.602 106.893 96.0229 106.893C94.8547 106.893 93.936 107.228 93.2671 107.897C92.5981 108.566 92.1737 109.504 91.994 110.713H99.5875ZM91.9041 112.69C91.9441 113.558 92.0789 114.312 92.3085 114.951C92.5382 115.58 92.8427 116.104 93.2221 116.524C93.6115 116.943 94.0708 117.258 94.6 117.467C95.1392 117.667 95.7383 117.767 96.3973 117.767C97.0264 117.767 97.5705 117.697 98.0298 117.557C98.4891 117.407 98.8885 117.248 99.228 117.078C99.5675 116.898 99.8571 116.738 100.097 116.599C100.336 116.449 100.556 116.374 100.756 116.374C101.015 116.374 101.215 116.474 101.355 116.674L102.268 117.857C101.889 118.306 101.46 118.685 100.98 118.995C100.501 119.305 99.9919 119.559 99.4527 119.759C98.9135 119.949 98.3593 120.083 97.7902 120.163C97.2211 120.253 96.6669 120.298 96.1277 120.298C95.0693 120.298 94.0858 120.123 93.1772 119.774C92.2786 119.414 91.4948 118.89 90.8258 118.201C90.1668 117.512 89.6475 116.659 89.2681 115.64C88.8987 114.622 88.714 113.448 88.714 112.12C88.714 111.062 88.8787 110.074 89.2082 109.155C89.5477 108.236 90.027 107.438 90.646 106.759C91.2751 106.08 92.0339 105.545 92.9226 105.156C93.8212 104.757 94.8347 104.557 95.963 104.557C96.9016 104.557 97.7702 104.712 98.569 105.021C99.3678 105.321 100.057 105.765 100.636 106.354C101.215 106.943 101.664 107.667 101.984 108.526C102.313 109.375 102.478 110.343 102.478 111.432C102.478 111.931 102.423 112.265 102.313 112.435C102.204 112.605 102.004 112.69 101.714 112.69H91.9041Z" fill="#619948"/>
<path d="M116.28 107.792C116.18 107.922 116.085 108.022 115.995 108.092C115.905 108.161 115.775 108.196 115.606 108.196C115.436 108.196 115.256 108.136 115.066 108.017C114.887 107.897 114.667 107.767 114.407 107.627C114.158 107.477 113.853 107.343 113.494 107.223C113.134 107.103 112.685 107.043 112.146 107.043C111.447 107.043 110.833 107.168 110.304 107.418C109.785 107.667 109.345 108.027 108.986 108.496C108.636 108.955 108.372 109.519 108.192 110.188C108.022 110.847 107.937 111.591 107.937 112.42C107.937 113.279 108.032 114.043 108.222 114.712C108.412 115.381 108.681 115.945 109.031 116.404C109.39 116.863 109.819 117.213 110.319 117.452C110.828 117.692 111.397 117.812 112.026 117.812C112.645 117.812 113.149 117.737 113.539 117.587C113.928 117.437 114.253 117.273 114.512 117.093C114.772 116.913 114.992 116.748 115.171 116.599C115.361 116.449 115.561 116.374 115.77 116.374C116.03 116.374 116.23 116.474 116.37 116.674L117.283 117.857C116.914 118.306 116.504 118.685 116.055 118.995C115.606 119.305 115.131 119.559 114.632 119.759C114.133 119.949 113.614 120.083 113.075 120.163C112.535 120.253 111.991 120.298 111.442 120.298C110.493 120.298 109.605 120.123 108.776 119.774C107.957 119.414 107.238 118.9 106.619 118.231C106.01 117.552 105.526 116.728 105.167 115.76C104.817 114.781 104.642 113.668 104.642 112.42C104.642 111.292 104.802 110.248 105.122 109.29C105.441 108.321 105.905 107.487 106.514 106.789C107.134 106.09 107.897 105.545 108.806 105.156C109.715 104.757 110.763 104.557 111.951 104.557C113.06 104.557 114.033 104.737 114.872 105.096C115.72 105.456 116.474 105.965 117.133 106.624L116.28 107.792Z" fill="#619948"/>
<path d="M123.093 97.907V110.758H123.782C124.002 110.758 124.182 110.728 124.322 110.668C124.461 110.608 124.606 110.483 124.756 110.293L129.039 105.396C129.189 105.196 129.354 105.046 129.534 104.946C129.713 104.846 129.943 104.797 130.223 104.797H133.143L127.991 110.608C127.691 110.997 127.362 111.307 127.002 111.536C127.202 111.676 127.377 111.836 127.527 112.016C127.676 112.185 127.821 112.38 127.961 112.6L133.458 120.073H130.582C130.322 120.073 130.098 120.033 129.908 119.954C129.728 119.864 129.569 119.704 129.429 119.474L125.01 113.483C124.861 113.254 124.711 113.109 124.561 113.049C124.411 112.979 124.187 112.944 123.887 112.944H123.093V120.073H119.873V97.907H123.093Z" fill="#619948"/>
<path d="M144.645 107.567C144.565 107.707 144.475 107.807 144.375 107.867C144.275 107.927 144.15 107.957 144 107.957C143.831 107.957 143.646 107.907 143.446 107.807C143.247 107.697 143.012 107.577 142.742 107.448C142.473 107.318 142.153 107.203 141.784 107.103C141.424 106.993 141 106.938 140.511 106.938C140.111 106.938 139.747 106.988 139.417 107.088C139.098 107.178 138.823 107.313 138.594 107.492C138.374 107.662 138.204 107.867 138.084 108.107C137.965 108.336 137.905 108.586 137.905 108.855C137.905 109.215 138.015 109.514 138.234 109.754C138.454 109.994 138.743 110.203 139.103 110.383C139.462 110.553 139.872 110.708 140.331 110.847C140.79 110.987 141.26 111.137 141.739 111.297C142.218 111.456 142.688 111.641 143.147 111.851C143.606 112.061 144.015 112.32 144.375 112.63C144.734 112.929 145.024 113.299 145.244 113.738C145.463 114.167 145.573 114.692 145.573 115.311C145.573 116.03 145.443 116.694 145.184 117.303C144.924 117.912 144.545 118.441 144.045 118.89C143.546 119.34 142.922 119.689 142.173 119.939C141.434 120.188 140.586 120.313 139.627 120.313C139.098 120.313 138.584 120.263 138.084 120.163C137.595 120.073 137.126 119.949 136.677 119.789C136.237 119.619 135.823 119.419 135.433 119.19C135.054 118.96 134.715 118.71 134.415 118.441L135.164 117.213C135.254 117.063 135.364 116.948 135.493 116.868C135.633 116.778 135.803 116.733 136.003 116.733C136.212 116.733 136.417 116.803 136.617 116.943C136.826 117.073 137.066 117.218 137.336 117.377C137.615 117.537 137.95 117.687 138.339 117.827C138.728 117.957 139.213 118.022 139.792 118.022C140.271 118.022 140.686 117.967 141.035 117.857C141.384 117.737 141.674 117.577 141.904 117.377C142.133 117.178 142.303 116.953 142.413 116.704C142.523 116.444 142.578 116.169 142.578 115.88C142.578 115.49 142.468 115.171 142.248 114.921C142.028 114.672 141.734 114.457 141.365 114.277C141.005 114.097 140.591 113.938 140.121 113.798C139.662 113.658 139.193 113.508 138.714 113.349C138.234 113.189 137.76 113.004 137.291 112.794C136.831 112.585 136.417 112.32 136.048 112.001C135.688 111.671 135.399 111.277 135.179 110.817C134.959 110.348 134.849 109.779 134.849 109.11C134.849 108.501 134.969 107.922 135.209 107.373C135.458 106.823 135.818 106.339 136.287 105.92C136.766 105.5 137.351 105.171 138.04 104.931C138.738 104.682 139.542 104.557 140.451 104.557C141.479 104.557 142.413 104.722 143.252 105.051C144.09 105.381 144.794 105.83 145.363 106.399L144.645 107.567Z" fill="#619948"/>
<path fill-rule="evenodd" clip-rule="evenodd" d="M146.651 49.379L107.874 92.054C106.905 93.1206 105.379 93.4813 104.035 92.9618C102.691 92.4423 101.805 91.1496 101.805 89.7085V60.1642H108.78V80.6835L141.488 44.6879L146.651 49.379Z" fill="#619948"/>
</svg>
