<svg width="71" height="61" viewBox="0 0 71 61" fill="none" xmlns="http://www.w3.org/2000/svg">
<path fill-rule="evenodd" clip-rule="evenodd" d="M30.7031 0.421219H46.4142L31.2116 15.6238L30.9017 15.3139H30.7031V0.421219ZM31.2988 14.6941L44.976 1.01693H31.2988V14.6941Z" fill="#619948"/>
<path fill-rule="evenodd" clip-rule="evenodd" d="M45.2969 0.421219H61.0079L45.8053 15.6238L45.4954 15.3139H45.2969V0.421219ZM45.8926 14.6941L59.5698 1.01693H45.8926V14.6941Z" fill="#619948"/>
<path fill-rule="evenodd" clip-rule="evenodd" d="M30.7031 15.1153H46.4142L31.2116 30.3179L30.9017 30.008H30.7031V15.1153ZM31.2988 29.3882L44.976 15.711H31.2988V29.3882Z" fill="#619948"/>
<path fill-rule="evenodd" clip-rule="evenodd" d="M45.2969 15.1153H61.0079L45.8053 30.3179L45.4954 30.008H45.2969V15.1153ZM45.8926 29.3882L59.5698 15.711H45.8926V29.3882Z" fill="#619948"/>
<path fill-rule="evenodd" clip-rule="evenodd" d="M30.7031 29.8093H46.4142L31.2116 45.0119L30.9017 44.702H30.7031V29.8093ZM31.2988 44.0822L44.976 30.405H31.2988V44.0822Z" fill="#619948"/>
<path fill-rule="evenodd" clip-rule="evenodd" d="M16.0078 29.8093H31.7189L16.5163 45.0119L16.2064 44.702H16.0078V29.8093ZM16.6035 44.0822L30.2807 30.405H16.6035V44.0822Z" fill="#619948"/>
<path fill-rule="evenodd" clip-rule="evenodd" d="M16.5039 15.711L0.792861 15.711L16.5039 -8.58307e-06L16.5039 15.711ZM15.9082 15.1153L15.9082 1.43816L2.23103 15.1153L15.9082 15.1153Z" fill="#619948"/>
<path fill-rule="evenodd" clip-rule="evenodd" d="M31.1992 15.711L15.4882 15.711L30.6908 0.50846L31.0007 0.818359L31.1992 0.818359L31.1992 15.711ZM30.6035 1.43816L16.9263 15.1153L30.6035 15.1153L30.6035 1.43816Z" fill="#619948"/>
<path fill-rule="evenodd" clip-rule="evenodd" d="M16.5039 30.4052L0.792861 30.4051L15.9954 15.2026L16.3053 15.5125L16.5039 15.5125L16.5039 30.4052ZM15.9082 16.1323L2.23103 29.8094L15.9082 29.8094L15.9082 16.1323Z" fill="#619948"/>
<path fill-rule="evenodd" clip-rule="evenodd" d="M16.5039 45.0991L0.792861 45.0991L15.9954 29.8966L16.3053 30.2065L16.5039 30.2065L16.5039 45.0991ZM15.9082 30.8263L2.23103 44.5034L15.9082 44.5034L15.9082 30.8263Z" fill="#619948"/>
<path fill-rule="evenodd" clip-rule="evenodd" d="M31.1992 45.0991L15.4882 45.0991L30.6908 29.8966L31.0007 30.2065L31.1992 30.2065L31.1992 45.0991ZM30.6035 30.8263L16.9263 44.5034L30.6035 44.5034L30.6035 30.8263Z" fill="#619948"/>
<path fill-rule="evenodd" clip-rule="evenodd" d="M15.9102 15.1153H31.6212L16.4186 30.3179L16.1087 30.008H15.9102V15.1153ZM16.5059 29.3882L30.183 15.711H16.5059V29.3882Z" fill="#619948"/>
<path d="M9.58155 52.822C9.58155 53.5854 9.44868 54.2909 9.18293 54.9383C8.92201 55.581 8.55237 56.139 8.07402 56.6126C7.59566 57.0813 7.01826 57.4485 6.3418 57.7142C5.67017 57.9751 4.92365 58.1056 4.10224 58.1056H0V47.5456H4.10224C4.92365 47.5456 5.67017 47.6785 6.3418 47.9442C7.01826 48.21 7.59566 48.5772 8.07402 49.0459C8.55237 49.5146 8.92201 50.0727 9.18293 50.7201C9.44868 51.3628 9.58155 52.0634 9.58155 52.822ZM7.07382 52.822C7.07382 52.3001 7.00618 51.829 6.87089 51.4087C6.7356 50.9883 6.53991 50.6332 6.28382 50.3432C6.03256 50.0485 5.72332 49.8238 5.3561 49.6692C4.98888 49.5097 4.57093 49.43 4.10224 49.43H2.46424V56.2212H4.10224C4.57093 56.2212 4.98888 56.1439 5.3561 55.9893C5.72332 55.8298 6.03256 55.6051 6.28382 55.3152C6.53991 55.0205 6.7356 54.6629 6.87089 54.2425C7.00618 53.8222 7.07382 53.3486 7.07382 52.822Z" fill="#619948"/>
<path d="M12.5784 50.7129V58.1056H11.0201V50.7129H12.5784ZM12.8393 48.4806C12.8393 48.6207 12.8103 48.7536 12.7523 48.8792C12.6992 49.0048 12.6243 49.116 12.5277 49.2126C12.431 49.3044 12.3175 49.3793 12.187 49.4373C12.0614 49.4904 11.9261 49.517 11.7811 49.517C11.641 49.517 11.5081 49.4904 11.3825 49.4373C11.2617 49.3793 11.1554 49.3044 11.0636 49.2126C10.9718 49.116 10.8969 49.0048 10.8389 48.8792C10.7858 48.7536 10.7592 48.6207 10.7592 48.4806C10.7592 48.3356 10.7858 48.2003 10.8389 48.0747C10.8969 47.9491 10.9718 47.8403 11.0636 47.7485C11.1554 47.6519 11.2617 47.577 11.3825 47.5239C11.5081 47.4659 11.641 47.4369 11.7811 47.4369C11.9261 47.4369 12.0614 47.4659 12.187 47.5239C12.3175 47.577 12.431 47.6519 12.5277 47.7485C12.6243 47.8403 12.6992 47.9491 12.7523 48.0747C12.8103 48.2003 12.8393 48.3356 12.8393 48.4806Z" fill="#619948"/>
<path d="M17.1745 54.344C17.6577 54.344 18.0201 54.2208 18.2617 53.9744C18.5033 53.7279 18.6241 53.4066 18.6241 53.0104C18.6241 52.6045 18.5033 52.2832 18.2617 52.0465C18.0201 51.8097 17.6577 51.6913 17.1745 51.6913C16.6961 51.6913 16.3338 51.8097 16.0873 52.0465C15.8457 52.2832 15.7249 52.6045 15.7249 53.0104C15.7249 53.2037 15.7564 53.3825 15.8192 53.5468C15.882 53.711 15.9738 53.8536 16.0946 53.9744C16.2154 54.0903 16.3652 54.1821 16.5439 54.2498C16.7276 54.3126 16.9377 54.344 17.1745 54.344ZM19.3416 58.468C19.3416 58.3037 19.2933 58.1732 19.1966 58.0766C19.1048 57.9751 18.9792 57.8978 18.8197 57.8447C18.6603 57.7867 18.4743 57.7456 18.2617 57.7215C18.0491 57.6925 17.822 57.6732 17.5804 57.6635C17.3436 57.649 17.0996 57.6369 16.8483 57.6272C16.6019 57.6128 16.3627 57.5886 16.1308 57.5548C15.8989 57.6756 15.708 57.8205 15.5582 57.9896C15.4133 58.1588 15.3408 58.3544 15.3408 58.5767C15.3408 58.7217 15.3771 58.857 15.4495 58.9826C15.5268 59.1082 15.6428 59.2169 15.7974 59.3087C15.9569 59.4005 16.1574 59.473 16.399 59.5262C16.6454 59.5793 16.9402 59.6059 17.2832 59.6059C17.9693 59.6059 18.4839 59.4996 18.827 59.287C19.1701 59.0744 19.3416 58.8014 19.3416 58.468ZM20.9071 50.981V51.5609C20.9071 51.7541 20.7911 51.8725 20.5592 51.916L19.8199 52.0392C19.9456 52.3195 20.0084 52.6311 20.0084 52.9742C20.0084 53.3366 19.9359 53.6651 19.7909 53.9599C19.6508 54.2546 19.4551 54.5059 19.2039 54.7136C18.9526 54.9214 18.653 55.0809 18.3051 55.192C17.9573 55.3031 17.5804 55.3587 17.1745 55.3587C17.0199 55.3587 16.8677 55.3514 16.7179 55.337C16.5729 55.3176 16.4304 55.2935 16.2903 55.2645C16.1501 55.3466 16.0463 55.4336 15.9786 55.5254C15.911 55.6172 15.8771 55.7114 15.8771 55.8081C15.8771 55.9675 15.9472 56.0859 16.0873 56.1632C16.2275 56.2405 16.4111 56.2961 16.6382 56.3299C16.8701 56.3637 17.1334 56.3855 17.4282 56.3951C17.7229 56.4048 18.0225 56.4217 18.3269 56.4459C18.6313 56.47 18.9309 56.5111 19.2256 56.5691C19.5204 56.6222 19.7813 56.714 20.0084 56.8445C20.2403 56.9701 20.4263 57.1416 20.5665 57.3591C20.7066 57.5765 20.7766 57.8592 20.7766 58.2071C20.7766 58.526 20.6969 58.8376 20.5375 59.142C20.378 59.4464 20.1461 59.717 19.8417 59.9538C19.5421 60.1905 19.1749 60.379 18.74 60.5191C18.3051 60.6641 17.8099 60.7365 17.2542 60.7365C16.7034 60.7365 16.2226 60.6834 15.8119 60.5771C15.406 60.4708 15.0654 60.3258 14.79 60.1422C14.5194 59.9634 14.3165 59.7557 14.1812 59.5189C14.0507 59.2822 13.9855 59.0357 13.9855 58.7796C13.9855 58.4318 14.0942 58.1346 14.3116 57.8882C14.5339 57.6417 14.8335 57.4485 15.2104 57.3083C15.0074 57.2117 14.8431 57.0788 14.7175 56.9097C14.5967 56.7406 14.5363 56.5183 14.5363 56.2429C14.5363 56.0255 14.616 55.7984 14.7755 55.5616C14.9349 55.3249 15.1741 55.1244 15.493 54.9601C15.1258 54.7571 14.8359 54.489 14.6233 54.1556C14.4107 53.8173 14.3044 53.4235 14.3044 52.9742C14.3044 52.607 14.3744 52.276 14.5146 51.9812C14.6595 51.6865 14.86 51.4352 15.1161 51.2275C15.3722 51.0197 15.6742 50.8602 16.0221 50.7491C16.3748 50.638 16.759 50.5824 17.1745 50.5824C17.8123 50.5824 18.368 50.7153 18.8415 50.981H20.9071Z" fill="#619948"/>
<path d="M23.7615 50.7129V58.1056H22.2032V50.7129H23.7615ZM24.0224 48.4806C24.0224 48.6207 23.9934 48.7536 23.9354 48.8792C23.8823 49.0048 23.8074 49.116 23.7107 49.2126C23.6141 49.3044 23.5006 49.3793 23.3701 49.4373C23.2445 49.4904 23.1092 49.517 22.9642 49.517C22.8241 49.517 22.6912 49.4904 22.5656 49.4373C22.4448 49.3793 22.3385 49.3044 22.2467 49.2126C22.1549 49.116 22.08 49.0048 22.022 48.8792C21.9689 48.7536 21.9423 48.6207 21.9423 48.4806C21.9423 48.3356 21.9689 48.2003 22.022 48.0747C22.08 47.9491 22.1549 47.8403 22.2467 47.7485C22.3385 47.6519 22.4448 47.577 22.5656 47.5239C22.6912 47.4659 22.8241 47.4369 22.9642 47.4369C23.1092 47.4369 23.2445 47.4659 23.3701 47.5239C23.5006 47.577 23.6141 47.6519 23.7107 47.7485C23.8074 47.8403 23.8823 47.9491 23.9354 48.0747C23.9934 48.2003 24.0224 48.3356 24.0224 48.4806Z" fill="#619948"/>
<path d="M32.9092 55.3732C32.9672 55.3732 33.0251 55.3853 33.0831 55.4094C33.1411 55.4288 33.1967 55.465 33.2498 55.5181L34.221 56.5401C33.7958 57.0957 33.2619 57.5161 32.6193 57.8012C31.9815 58.0814 31.2253 58.2216 30.3507 58.2216C29.5486 58.2216 28.8287 58.0863 28.1909 57.8157C27.5579 57.5403 27.0192 57.1634 26.5746 56.685C26.1349 56.2019 25.7967 55.6317 25.5599 54.9746C25.3232 54.3126 25.2048 53.5951 25.2048 52.822C25.2048 52.0344 25.3328 51.312 25.5889 50.6549C25.845 49.9929 26.205 49.4228 26.6688 48.9444C27.1327 48.4661 27.6884 48.094 28.3358 47.8283C28.9833 47.5625 29.696 47.4296 30.4739 47.4296C30.8701 47.4296 31.2422 47.4659 31.5901 47.5384C31.9428 47.606 32.2714 47.7026 32.5758 47.8283C32.8802 47.9491 33.1604 48.0964 33.4165 48.2704C33.6726 48.4443 33.8997 48.6328 34.0978 48.8357L33.2716 49.9446C33.2184 50.0123 33.1556 50.0751 33.0831 50.1331C33.0107 50.1862 32.9092 50.2128 32.7787 50.2128C32.6917 50.2128 32.6096 50.1935 32.5323 50.1548C32.455 50.1161 32.3728 50.0702 32.2859 50.0171C32.1989 49.9591 32.1023 49.8987 31.996 49.8359C31.8945 49.7683 31.7713 49.7079 31.6263 49.6547C31.4862 49.5967 31.3195 49.5484 31.1262 49.5097C30.9378 49.4711 30.7155 49.4518 30.4594 49.4518C30.0536 49.4518 29.6815 49.5267 29.3433 49.6764C29.0099 49.8262 28.72 50.0461 28.4735 50.336C28.232 50.6211 28.0435 50.9738 27.9082 51.3942C27.7778 51.8097 27.7125 52.2856 27.7125 52.822C27.7125 53.3631 27.785 53.8439 27.93 54.2643C28.0798 54.6847 28.2803 55.0398 28.5315 55.3297C28.7876 55.6148 29.0848 55.8322 29.423 55.982C29.7612 56.1318 30.1236 56.2067 30.5102 56.2067C30.7324 56.2067 30.9354 56.197 31.119 56.1777C31.3026 56.1535 31.4741 56.1173 31.6336 56.069C31.793 56.0158 31.9428 55.9482 32.0829 55.866C32.2231 55.7791 32.3656 55.6704 32.5106 55.5399C32.5685 55.4916 32.6313 55.4529 32.699 55.4239C32.7666 55.3901 32.8367 55.3732 32.9092 55.3732Z" fill="#619948"/>
<path d="M36.7762 51.5899C37.0806 51.2903 37.414 51.0511 37.7764 50.8723C38.1388 50.6887 38.5616 50.5969 39.0448 50.5969C39.4506 50.5969 39.8058 50.6646 40.1102 50.7998C40.4194 50.9351 40.6779 51.126 40.8857 51.3724C41.0983 51.6188 41.2577 51.916 41.364 52.2639C41.4703 52.607 41.5235 52.9863 41.5235 53.4018V58.1056H39.9725V53.4018C39.9725 52.9041 39.8565 52.5176 39.6246 52.2422C39.3975 51.9667 39.0496 51.829 38.5809 51.829C38.233 51.829 37.9093 51.9088 37.6097 52.0682C37.315 52.2277 37.0371 52.4451 36.7762 52.7205V58.1056H35.2179V47.3789H36.7762V51.5899Z" fill="#619948"/>
<path d="M48.1921 53.5757C48.1921 53.3148 48.1535 53.0732 48.0762 52.851C48.0037 52.6239 47.895 52.4282 47.75 52.2639C47.6051 52.0948 47.4239 51.9643 47.2064 51.8725C46.9938 51.7759 46.7474 51.7276 46.4672 51.7276C45.9018 51.7276 45.4573 51.8894 45.1336 52.2132C44.8098 52.5369 44.6045 52.9911 44.5175 53.5757H48.1921ZM44.474 54.5325C44.4933 54.9528 44.5586 55.3176 44.6697 55.6269C44.7808 55.9313 44.9282 56.1849 45.1118 56.3879C45.3003 56.5908 45.5225 56.743 45.7786 56.8445C46.0395 56.9411 46.3294 56.9894 46.6483 56.9894C46.9528 56.9894 47.2161 56.9556 47.4384 56.888C47.6606 56.8155 47.8539 56.7382 48.0182 56.656C48.1825 56.5691 48.3226 56.4918 48.4385 56.4241C48.5545 56.3516 48.6608 56.3154 48.7574 56.3154C48.8831 56.3154 48.9797 56.3637 49.0474 56.4604L49.4895 57.0329C49.3059 57.2504 49.0981 57.434 48.8662 57.5838C48.6342 57.7335 48.3878 57.8568 48.1269 57.9534C47.866 58.0452 47.5978 58.1104 47.3224 58.1491C47.047 58.1926 46.7788 58.2143 46.5179 58.2143C46.0057 58.2143 45.5298 58.1298 45.0901 57.9606C44.6552 57.7867 44.2759 57.533 43.9522 57.1996C43.6333 56.8662 43.382 56.4531 43.1984 55.9603C43.0196 55.4674 42.9302 54.8997 42.9302 54.257C42.9302 53.7449 43.01 53.2665 43.1694 52.822C43.3337 52.3774 43.5656 51.9909 43.8652 51.6623C44.1696 51.3338 44.5368 51.0753 44.9669 50.8868C45.4017 50.6935 45.8922 50.5969 46.4382 50.5969C46.8924 50.5969 47.3127 50.6718 47.6993 50.8216C48.0858 50.9665 48.4192 51.1816 48.6995 51.4666C48.9797 51.7517 49.1971 52.102 49.3518 52.5176C49.5112 52.9283 49.5909 53.397 49.5909 53.9236C49.5909 54.1652 49.5644 54.3271 49.5112 54.4092C49.4581 54.4914 49.3614 54.5325 49.2213 54.5325H44.474Z" fill="#619948"/>
<path d="M56.2698 52.1624C56.2214 52.2252 56.1755 52.2736 56.1321 52.3074C56.0886 52.3412 56.0258 52.3581 55.9436 52.3581C55.8615 52.3581 55.7745 52.3291 55.6827 52.2711C55.5957 52.2132 55.4894 52.1504 55.3638 52.0827C55.243 52.0102 55.0956 51.945 54.9217 51.887C54.7477 51.829 54.5303 51.8 54.2694 51.8C53.9311 51.8 53.634 51.8604 53.3779 51.9812C53.1266 52.102 52.914 52.276 52.7401 52.5031C52.571 52.7253 52.4429 52.9983 52.356 53.3221C52.2738 53.641 52.2327 54.0009 52.2327 54.402C52.2327 54.8175 52.2787 55.1872 52.3705 55.5109C52.4623 55.8346 52.5927 56.1076 52.7618 56.3299C52.9358 56.5522 53.1436 56.7213 53.3852 56.8372C53.6316 56.9532 53.907 57.0112 54.2114 57.0112C54.511 57.0112 54.755 56.9749 54.9434 56.9025C55.1319 56.83 55.2889 56.7503 55.4145 56.6633C55.5402 56.5763 55.6465 56.4966 55.7334 56.4241C55.8252 56.3516 55.9219 56.3154 56.0233 56.3154C56.149 56.3154 56.2456 56.3637 56.3132 56.4604L56.7554 57.0329C56.5766 57.2504 56.3785 57.434 56.161 57.5838C55.9436 57.7335 55.7141 57.8568 55.4725 57.9534C55.2309 58.0452 54.9797 58.1104 54.7187 58.1491C54.4578 58.1926 54.1945 58.2143 53.9287 58.2143C53.4697 58.2143 53.0397 58.1298 52.6386 57.9606C52.2424 57.7867 51.8945 57.5379 51.5949 57.2141C51.3002 56.8856 51.0659 56.4869 50.8919 56.0182C50.7228 55.5447 50.6382 55.006 50.6382 54.402C50.6382 53.856 50.7155 53.3511 50.8702 52.8872C51.0248 52.4185 51.2495 52.0151 51.5442 51.6768C51.8438 51.3386 52.2134 51.0753 52.6531 50.8868C53.0928 50.6935 53.6002 50.5969 54.1752 50.5969C54.7115 50.5969 55.1826 50.6839 55.5885 50.8578C55.9992 51.0318 56.364 51.2782 56.6829 51.5971L56.2698 52.1624Z" fill="#619948"/>
<path d="M59.567 47.3789V53.5975H59.9004C60.0067 53.5975 60.0937 53.583 60.1614 53.554C60.229 53.525 60.2991 53.4646 60.3715 53.3728L62.4444 51.0028C62.5169 50.9062 62.5966 50.8337 62.6836 50.7854C62.7706 50.737 62.8817 50.7129 63.017 50.7129H64.4303L61.9371 53.525C61.7921 53.7135 61.6327 53.8632 61.4587 53.9744C61.5553 54.042 61.6399 54.1193 61.7124 54.2063C61.7849 54.2884 61.8549 54.3827 61.9226 54.489L64.5825 58.1056H63.1909C63.0653 58.1056 62.9566 58.0863 62.8648 58.0476C62.7778 58.0041 62.7005 57.9268 62.6329 57.8157L60.4948 54.9166C60.4223 54.8055 60.3498 54.7354 60.2773 54.7064C60.2048 54.6726 60.0961 54.6557 59.9512 54.6557H59.567V58.1056H58.0088V47.3789H59.567Z" fill="#619948"/>
<path d="M69.996 52.0537C69.9574 52.1214 69.9139 52.1697 69.8656 52.1987C69.8172 52.2277 69.7568 52.2422 69.6844 52.2422C69.6022 52.2422 69.5128 52.218 69.4162 52.1697C69.3196 52.1165 69.206 52.0585 69.0756 51.9957C68.9451 51.9329 68.7905 51.8774 68.6117 51.829C68.4378 51.7759 68.2324 51.7493 67.9956 51.7493C67.8024 51.7493 67.626 51.7735 67.4665 51.8218C67.3119 51.8653 67.1791 51.9305 67.0679 52.0175C66.9616 52.0996 66.8795 52.1987 66.8215 52.3146C66.7635 52.4258 66.7345 52.5466 66.7345 52.677C66.7345 52.851 66.7877 52.9959 66.894 53.1119C67.0003 53.2279 67.1404 53.3293 67.3143 53.4163C67.4883 53.4984 67.6864 53.5733 67.9087 53.641C68.1309 53.7086 68.358 53.7811 68.5899 53.8584C68.8219 53.9357 69.049 54.0251 69.2712 54.1266C69.4935 54.228 69.6916 54.3537 69.8656 54.5035C70.0395 54.6484 70.1796 54.8272 70.2859 55.0398C70.3922 55.2476 70.4454 55.5012 70.4454 55.8008C70.4454 56.1487 70.3826 56.47 70.2569 56.7648C70.1313 57.0595 69.9477 57.3156 69.7061 57.533C69.4645 57.7505 69.1625 57.9196 68.8001 58.0404C68.4426 58.1612 68.0319 58.2216 67.568 58.2216C67.3119 58.2216 67.0631 58.1974 66.8215 58.1491C66.5847 58.1056 66.3576 58.0452 66.1402 57.9679C65.9276 57.8858 65.7271 57.7891 65.5386 57.678C65.355 57.5668 65.1907 57.4461 65.0458 57.3156L65.4082 56.7213C65.4517 56.6488 65.5048 56.5932 65.5676 56.5546C65.6353 56.5111 65.7174 56.4893 65.814 56.4893C65.9155 56.4893 66.0146 56.5232 66.1112 56.5908C66.2127 56.6536 66.3286 56.7237 66.4591 56.801C66.5944 56.8783 66.7563 56.9508 66.9447 57.0184C67.1331 57.0812 67.3675 57.1127 67.6477 57.1127C67.8797 57.1127 68.0802 57.0861 68.2493 57.0329C68.4184 56.9749 68.5585 56.8976 68.6697 56.801C68.7808 56.7044 68.8629 56.5956 68.9161 56.4749C68.9693 56.3492 68.9958 56.2163 68.9958 56.0762C68.9958 55.8878 68.9427 55.7332 68.8364 55.6124C68.7301 55.4916 68.5875 55.3877 68.4088 55.3007C68.2348 55.2137 68.0343 55.1364 67.8072 55.0688C67.5849 55.0011 67.3578 54.9287 67.1259 54.8514C66.894 54.774 66.6645 54.6847 66.4374 54.5832C66.2151 54.4817 66.0146 54.3537 65.8358 54.1991C65.6618 54.0396 65.5217 53.8487 65.4154 53.6265C65.3091 53.3994 65.256 53.124 65.256 52.8002C65.256 52.5055 65.314 52.2252 65.4299 51.9595C65.5507 51.6937 65.7247 51.4594 65.9518 51.2565C66.1837 51.0535 66.4664 50.8941 66.7998 50.7781C67.138 50.6573 67.5269 50.5969 67.9666 50.5969C68.4643 50.5969 68.9161 50.6766 69.322 50.8361C69.7279 50.9955 70.0685 51.213 70.3439 51.4884L69.996 52.0537Z" fill="#619948"/>
<path fill-rule="evenodd" clip-rule="evenodd" d="M70.9674 23.8954L52.2026 44.5466C51.7336 45.0627 50.9955 45.2372 50.345 44.9859C49.6945 44.7345 49.2656 44.1089 49.2656 43.4115V29.1145H52.6413V39.0442L68.4691 21.6253L70.9674 23.8954Z" fill="#619948"/>
</svg>
